<svg id="Camada_1" data-name="Camada 1" xmlns="http://www.w3.org/2000/svg" viewBox="0 0 500 500"><defs><style>.cls-1{fill:#fff;}</style></defs><title>icone_whats</title><path class="cls-1" d="M324,695V195H824V695ZM804,445.26A229,229,0,0,0,785.8,355C739.58,247.64,623.11,192.13,510.43,224c-91.51,25.86-160.6,108-166.23,208.47-2.4,42.7,7.17,82.88,27.2,120.65a12.46,12.46,0,0,1,.94,8.32c-9,33-18.29,65.91-27.45,98.86-2.91,10.49,3.14,16.52,13.82,13.89,34.34-8.45,68.66-17,103.05-25.25a13.22,13.22,0,0,1,8.36,1c47.48,23.81,97.34,31.25,149.36,20.68A229.88,229.88,0,0,0,804,445.26Z" transform="translate(-324 -195)"/><path d="M804,445.26a229.88,229.88,0,0,1-184.51,225.3c-52,10.57-101.88,3.13-149.36-20.68a13.22,13.22,0,0,0-8.36-1c-34.39,8.27-68.71,16.8-103,25.25-10.68,2.63-16.73-3.4-13.82-13.89,9.16-32.95,18.45-65.86,27.45-98.86a12.46,12.46,0,0,0-.94-8.32c-20-37.77-29.6-77.95-27.2-120.65C349.83,332,418.92,249.85,510.43,224c112.68-31.86,229.15,23.65,275.37,131A229,229,0,0,1,804,445.26ZM368.47,651c30.91-7.66,60.76-14.9,90.51-22.54a22.28,22.28,0,0,1,17.07,2c51.62,26.8,105.53,32.05,161,14.63,105.41-33.12,166.18-140,141.07-248.25-28.33-122.13-157.93-194-277.44-148-84.74,32.64-130,97.35-136.18,188.05-2.67,39.2,7.12,76.24,26.51,110.5a19.73,19.73,0,0,1,2,16.56c-5,17-9.7,34.18-14.49,51.29C375.22,626.83,372,638.45,368.47,651Z" transform="translate(-324 -195)"/><path class="cls-1" d="M368.47,651c3.5-12.54,6.75-24.16,10-35.78,4.79-17.11,9.45-34.25,14.49-51.29a19.73,19.73,0,0,0-2-16.56c-19.39-34.26-29.18-71.3-26.51-110.5,6.19-90.7,51.44-155.41,136.18-188,119.51-46,249.11,25.87,277.44,148C803.2,505.09,742.43,611.94,637,645.06c-55.44,17.42-109.35,12.17-161-14.63a22.28,22.28,0,0,0-17.07-2C429.23,636.09,399.38,643.33,368.47,651ZM525.85,426.45c3.71-4.42,7.37-8.52,10.74-12.84,7.85-10,11.2-20.71,4.37-32.77a61.45,61.45,0,0,1-3-6.86c-4.69-11.19-9.31-22.41-14.07-33.56-4.42-10.34-11.73-16.35-23.61-15.42a81.89,81.89,0,0,1-9,0,29.77,29.77,0,0,0-22.54,9c-21.81,21.52-29.41,47.27-22.21,77.14,4.75,19.69,15.71,36.12,27.63,52.07,31.67,42.37,69.75,76.24,121,93.36,17.71,5.92,35.42,11.17,54.18,7.39,34.34-6.92,55.61-26.86,54.68-62-.19-7-3.19-12.54-9.22-15.47-16.73-8.13-33.59-16-50.67-23.39-10.43-4.5-17.49-1.92-24.51,7-4.93,6.29-10,12.51-15.22,18.53-.94,1.08-3.49,1.89-4.74,1.4C567.84,477.47,543.55,456.09,525.85,426.45Z" transform="translate(-324 -195)"/><path d="M525.85,426.45c17.7,29.64,42,51,73.82,63.56,1.25.49,3.8-.32,4.74-1.4,5.25-6,10.29-12.24,15.22-18.53,7-8.95,14.08-11.53,24.51-7,17.08,7.37,33.94,15.26,50.67,23.39,6,2.93,9,8.43,9.22,15.47.93,35.17-20.34,55.11-54.68,62-18.76,3.78-36.47-1.47-54.18-7.39-51.23-17.12-89.31-51-121-93.36-11.92-15.95-22.88-32.38-27.63-52.07-7.2-29.87.4-55.62,22.21-77.14a29.77,29.77,0,0,1,22.54-9,81.89,81.89,0,0,0,9,0c11.88-.93,19.19,5.08,23.61,15.42,4.76,11.15,9.38,22.37,14.07,33.56a61.45,61.45,0,0,0,3,6.86c6.83,12.06,3.48,22.74-4.37,32.77C533.22,417.93,529.56,422,525.85,426.45Zm-29.54-81.19c-6.33-1-11.14.77-15.58,5.24-17.93,18.09-20.34,39.11-12.26,62.16,6.43,18.35,17.85,33.76,29.88,48.66,25.34,31.38,54.74,57.69,93.21,72.12C609,540,626.11,547,645.61,544.3s34.79-16.25,38-35.54c.56-3.37-.25-5.16-3.34-6.61q-20.1-9.36-40-19.1c-3-1.5-4.6-.66-6.55,1.86-5.19,6.71-10.61,13.26-16.17,19.67-6.37,7.34-13.59,9-22.42,5.61q-56-21.68-86.75-73.32c-5.48-9.19-4.54-16.73,2.58-24.54A129.06,129.06,0,0,0,522.53,398c1.19-1.76,1.29-5.15.46-7.23-5.07-12.81-10.83-25.36-15.75-38.22C505.08,346.92,502.31,343.74,496.31,345.26Z" transform="translate(-324 -195)"/><path class="cls-1" d="M496.31,345.26c6-1.52,8.77,1.66,10.93,7.31,4.92,12.86,10.68,25.41,15.75,38.22.83,2.08.73,5.47-.46,7.23a129.06,129.06,0,0,1-11.6,14.31c-7.12,7.81-8.06,15.35-2.58,24.54q30.79,51.54,86.75,73.32c8.83,3.42,16,1.73,22.42-5.61,5.56-6.41,11-13,16.17-19.67,1.95-2.52,3.5-3.36,6.55-1.86q19.92,9.74,40,19.1c3.09,1.45,3.9,3.24,3.34,6.61-3.21,19.29-18.43,32.87-38,35.54S609,540,591.56,533.44c-38.47-14.43-67.87-40.74-93.21-72.12-12-14.9-23.45-30.31-29.88-48.66-8.08-23.05-5.67-44.07,12.26-62.16C485.17,346,490,344.3,496.31,345.26Z" transform="translate(-324 -195)"/></svg>