<svg id="Camada_1" data-name="Camada 1" xmlns="http://www.w3.org/2000/svg" viewBox="0 0 135.25 135.25"><defs><style>.cls-1{fill:#fff;}</style></defs><title>icone_insta</title><path d="M912.93,572h67.49c1.2.21,2.41.42,3.6.66a37.29,37.29,0,0,1,30.14,36.77q0,30,0,60.09a40.4,40.4,0,0,1-.63,7.2,37.19,37.19,0,0,1-29,29.44,40.92,40.92,0,0,1-8,.78c-20,.07-39.89,0-59.83,0a36,36,0,0,1-15.33-3.19c-11.12-5.14-18.25-13.64-21.23-25.56-.41-1.65-.68-3.34-1-5V605.74a11.57,11.57,0,0,0,.27-1.13,35.23,35.23,0,0,1,3-10.57c5.19-11,13.65-18.08,25.5-21C909.59,572.6,911.27,572.33,912.93,572Zm-21.64,67.49h-.06q0,14.7,0,29.39a27.44,27.44,0,0,0,1.27,8.81A25.49,25.49,0,0,0,917,695c19.77-.12,39.54,0,59.32-.09a30,30,0,0,0,8.52-1.28,25.19,25.19,0,0,0,17.3-24.46c-.12-19.77,0-39.54-.09-59.31a29.91,29.91,0,0,0-1.28-8.52A25.19,25.19,0,0,0,976.33,584c-19.77.12-39.54,0-59.31,0a24.61,24.61,0,0,0-12,2.77c-8.38,4.56-13.31,11.59-13.61,21.19C891,618.48,891.29,629,891.29,639.49Z" transform="translate(-879.19 -572)"/><path class="cls-1" d="M879.19,673.23c.33,1.67.6,3.36,1,5,3,11.92,10.11,20.42,21.23,25.56A36,36,0,0,0,916.76,707c19.94,0,39.88,0,59.83,0a40.92,40.92,0,0,0,8-.78,37.19,37.19,0,0,0,29-29.44,40.4,40.4,0,0,0,.63-7.2q.08-30,0-60.09A37.29,37.29,0,0,0,984,572.66c-1.19-.24-2.4-.45-3.6-.66h34V707.24H879.19Z" transform="translate(-879.19 -572)"/><path class="cls-1" d="M912.93,572c-1.66.33-3.34.6-5,1-11.85,3-20.31,10-25.5,21a35.23,35.23,0,0,0-3,10.57,11.57,11.57,0,0,1-.27,1.13V572Z" transform="translate(-879.19 -572)"/><path class="cls-1" d="M891.29,639.49c0-10.5-.25-21,.07-31.5.3-9.6,5.23-16.63,13.61-21.19A24.61,24.61,0,0,1,917,584c19.77,0,39.54.1,59.31,0a25.19,25.19,0,0,1,24.46,17.3,29.91,29.91,0,0,1,1.28,8.52c.11,19.77,0,39.54.09,59.31a25.19,25.19,0,0,1-17.3,24.46,30,30,0,0,1-8.52,1.28c-19.78.1-39.55,0-59.32.09a25.49,25.49,0,0,1-24.52-17.28,27.44,27.44,0,0,1-1.27-8.81q0-14.7,0-29.39Zm90.18,0a34.8,34.8,0,1,0-34.89,34.76A34.87,34.87,0,0,0,981.47,639.52Zm1.47-27.42a8.83,8.83,0,0,0,8.8-8.79,8.82,8.82,0,0,0-17.63,0A8.81,8.81,0,0,0,982.94,612.1Z" transform="translate(-879.19 -572)"/><path d="M981.47,639.52a34.8,34.8,0,1,1-34.7-34.83A34.86,34.86,0,0,1,981.47,639.52Zm-12.07,0a22.73,22.73,0,1,0-22.77,22.71A22.67,22.67,0,0,0,969.4,639.5Z" transform="translate(-879.19 -572)"/><path d="M982.94,612.1a8.81,8.81,0,0,1-8.83-8.75,8.82,8.82,0,0,1,17.63,0A8.83,8.83,0,0,1,982.94,612.1Z" transform="translate(-879.19 -572)"/><path class="cls-1" d="M969.4,639.5a22.73,22.73,0,1,1-22.74-22.74A22.66,22.66,0,0,1,969.4,639.5Z" transform="translate(-879.19 -572)"/></svg>