<svg id="Camada_1" data-name="Camada 1" xmlns="http://www.w3.org/2000/svg" viewBox="0 0 562.04 564.65"><title>icone_contato</title><path d="M960.45,822.68H691.94c-8,0-12.49-4.6-12.49-12.75q0-185.3-.05-370.57c0-6.48,2.65-10.57,8.62-13.08,27.73-11.68,55.35-23.58,83.11-35.19,3.51-1.47,4.53-3.26,4.51-7-.15-30.83-.09-61.67-.08-92.51,0-19.66,14-33.58,33.71-33.58q151,0,302,0c20,0,34,13.8,34,33.87.12,30.34.19,60.68-.12,91,0,5.09,1.74,7.07,6.13,8.89,27,11.24,53.88,22.77,80.79,34.23,7.3,3.1,9.33,6.39,9.33,14.15q0,184.53,0,369.07c0,8.69-4.53,13.42-13,13.42Zm-.27-203c.77-.41,1.08-.54,1.35-.73q79.26-57.45,158.43-115c1.48-1.09,2.51-3.81,2.51-5.77q.19-102.75.1-205.5c0-8.52-3.59-12-12.18-12q-150,0-300,0c-8.74,0-12.09,3.32-12.09,12q0,102.5-.06,205c0,3.3.87,5.39,3.67,7.4,23.55,16.88,46.95,34,70.4,51ZM717.05,799.39h486.64l-180.62-197.1c-18.39,13.34-36.16,26.25-54,39.13-6.71,4.86-10.85,4.81-17.64-.11-7.54-5.48-15.06-11-22.61-16.46-10.34-7.48-20.7-14.92-31.24-22.52Zm501.39-338.72L1041.55,588.91c59,64.33,117.57,128.3,176.89,193.05ZM879.19,588.9c-58.86-42.67-117.42-85.12-176.54-128V781.57ZM775.26,413.84l-62.4,26.5,62.4,45.24Zm370.58.15v71.34l62-45Z" transform="translate(-679.4 -258.04)"/><path d="M960.43,350.5q-47.22,0-94.42,0c-6.18,0-10-2.41-11.86-7.24-1.73-4.54-.77-10.05,3.28-12.51a20.94,20.94,0,0,1,10.22-2.89c27.31-.23,54.62-.13,81.93-.13H1052a39.54,39.54,0,0,1,4.49.08c6.71.77,11.27,5.79,11,11.95s-5.27,10.71-12.1,10.72Q1007.9,350.54,960.43,350.5Z" transform="translate(-679.4 -258.04)"/><path d="M960.45,433.75q46.45,0,92.92,0a20.88,20.88,0,0,1,6.85.9c4.71,1.69,7.14,5.42,7.16,10.35s-2.4,8.68-7.07,10.43a19.65,19.65,0,0,1-6.84,1q-93.18.07-186.35,0c-7.68,0-12.54-3.31-13.59-9.14-1.4-7.73,3.92-13.6,12.49-13.61Q913.24,433.72,960.45,433.75Z" transform="translate(-679.4 -258.04)"/><path d="M945,486.76q39.25,0,78.51,0c8.17,0,13.18,5.39,12.2,12.85-.64,4.8-3.3,8-8,9.11a31.2,31.2,0,0,1-7.41.77q-75.76.06-151.51,0a29.52,29.52,0,0,1-6.44-.58c-6.21-1.39-9.54-6.22-8.85-12.51a10.92,10.92,0,0,1,11-9.62c8.66-.15,17.33,0,26,0Z" transform="translate(-679.4 -258.04)"/><path d="M918.91,380.74c17.5,0,35-.05,52.49,0,8.18,0,13.35,5.38,12.57,12.72-.65,6.14-5.47,10-12.74,10q-48.74,0-97.48,0c-2.5,0-5,0-7.5,0-8-.08-12.83-4.41-12.8-11.46s4.89-11.28,13-11.3C883.92,380.7,901.42,380.74,918.91,380.74Z" transform="translate(-679.4 -258.04)"/></svg>