<svg id="Camada_1" data-name="Camada 1" xmlns="http://www.w3.org/2000/svg" viewBox="0 0 159.94 162.17"><title>icone_pessoa</title><path d="M1225.11,379.68A45.64,45.64,0,1,1,1179.24,425,45.76,45.76,0,0,1,1225.11,379.68Zm33.8,45.78a34,34,0,1,0-34.3,33.89A33.83,33.83,0,0,0,1258.91,425.46Z" transform="translate(-1145.21 -379.68)"/><path d="M1305.15,536.56c-1.37,1.62-2.4,3.91-4,4.51s-4.18,0-5.93-.86c-1.31-.64-2.08-2.49-3-3.88-31.73-50.05-103.1-50-134.81.2-.44.7-.86,1.41-1.33,2.1-2.07,3-4.82,4.25-8.09,2.22s-3.45-5.07-1.63-8.24a89.52,89.52,0,0,1,26.76-29.05c42.54-29.79,102.26-17.26,129.13,27.1C1303.25,532.32,1304,534.15,1305.15,536.56Z" transform="translate(-1145.21 -379.68)"/></svg>