<?xml version="1.0" encoding="utf-8"?>
<!-- Generator: Adobe Illustrator 23.1.0, SVG Export Plug-In . SVG Version: 6.00 Build 0)  -->
<svg version="1.1" id="Camada_1" xmlns="http://www.w3.org/2000/svg" xmlns:xlink="http://www.w3.org/1999/xlink" x="0px" y="0px"
	 viewBox="0 0 1440 300" style="enable-background:new 0 0 1440 300;" xml:space="preserve">
<style type="text/css">
	.st0{fill:#FFFFFF;}
</style>
<path class="st0" d="M151.57,14.02c19.95,0.27,39.4,3.24,57.99,10.76c28.36,11.48,49.26,31.14,62.8,58.44
	c12.6,25.41,19.1,52.38,18.07,80.82c-1.05,29.2-11.86,54.84-31.09,76.59c-31.89,36.04-72.29,52.32-120.16,48.23
	c-46.6-3.98-83.12-25.92-108.43-65.43C14.72,198.38,7.9,170.61,9.77,140.97c1.2-19.01,8.35-36.23,18.55-52.11
	c19.95-31.06,46.87-53.87,81.41-67.3C123.16,16.34,137.13,13.77,151.57,14.02z M71.3,57.81c-8.67,7.14-16.26,14.84-23.02,23.34
	c-19.62,24.65-30.86,51.83-26.16,84.17c4.3,29.56,16.24,55.34,38,75.85c33.91,31.98,74.49,43.12,119.73,33.54
	c41.77-8.85,72.27-33.38,90.01-72.63c9.55-21.12,11.32-43.36,6.99-66.04c-1.87-9.77-4.35-19.43-6.67-29.63
	c-4.01,2.3-7.21,4.13-10.32,5.92c1.38,5.24,2.8,10.13,3.95,15.08c3.96,16.99,5.72,34.1,1.85,51.37c-7,31.21-24.95,54.61-51.88,71.15
	c-27.87,17.13-58.2,21.02-89.94,14.53C56.96,250.77,28.21,191.44,37.55,136c4.21-25.02,17.04-45.57,35.3-62.88
	c1.94-1.84,3.95-3.6,6.08-5.53C76.38,64.32,73.96,61.22,71.3,57.81z M117.87,212.79c13.29,6.82,26.56,9.31,40.41,7.53
	c21.57-2.78,38.53-13.79,51.85-30.6c5.89-7.43,10.45-15.65,10.75-25.45c0.3-9.82-0.83-19.55-3.27-29.08
	c-4.23-16.5-12.03-30.77-26.31-40.8c-22.89-16.07-58.84-14.54-80.35,3.39c-0.21,0.18-0.31,0.49-0.5,0.8
	c1.74,2.23,3.48,4.45,5.2,6.66c1.21,1.55,1.77,3.26,0.04,4.69c-1.91,1.58-3.43,0.53-4.73-1.15c-1.68-2.18-3.42-4.32-5.14-6.5
	C71.63,133.71,78.55,188.66,113.7,210c1.02-1.23,2.11-2.62,3.29-3.94c1.4-1.57,3.07-2.43,4.81-0.62c1.74,1.81,0.75,3.44-0.78,4.82
	C120.16,211.03,119.22,211.7,117.87,212.79z M233.37,120.32c-7.03-20.33-18.89-36.61-38.76-45.66
	c-21.13-9.62-43.23-11.74-65.87-6.13c-11.01,2.72-21.12,7.49-30.59,14.25c2.9,3.72,5.66,7.27,8.45,10.86
	c15.39-11.68,32.3-17.12,51.14-16.09c23.11,1.27,41.58,11.06,54.4,30.61c9.81,14.97,13.4,31.79,14.56,49.42
	c0.8,12.17-2.79,22.78-9.59,32.54c-21.38,30.7-62.47,48.02-101.53,28.12c-0.66-0.34-1.95-0.41-2.41-0.01
	c-2.91,2.6-5.68,5.38-8.67,8.27c1.68,0.99,2.82,1.72,4,2.36c20.18,10.94,41.51,13.69,63.82,8.69c40.99-9.2,74.28-48.03,66.72-93.4
	c-0.98-5.89-2.33-11.72-3.54-17.72c-4.49,2.11-6.15,2.2-6.88,0.32C227,122.49,231.54,122.51,233.37,120.32z M240.58,123.3
	c0.31,1.22,0.55,2.21,0.81,3.2c4.26,16.39,6.42,32.83,2.37,49.67c-10.25,42.63-54.94,75.95-106.1,68.59
	c-12.62-1.81-24.4-5.99-35.33-12.59c-0.74-0.44-2.24-0.79-2.66-0.4c-4.06,3.78-7.97,7.74-12.12,11.84c1.43,0.88,2.39,1.5,3.37,2.06
	c26.7,15.17,55.31,19.59,85.05,12.98c37.02-8.23,63.87-29.83,78.96-65c8.61-20.07,8.58-40.91,3.81-61.91
	c-1.23-5.41-2.65-10.79-4.06-16.51C249.72,118.09,245.31,120.61,240.58,123.3z M238.74,117.57c2.59-1.46,4.85-2.73,7.1-4.03
	c7.03-4.04,7.06-4.05,3.87-11.46c-9.55-22.17-24.14-39.9-46.92-49.02c-40.85-16.34-79.11-10.48-114.48,15.39
	c-0.23,0.17-0.35,0.48-0.61,0.85c1.72,2.22,3.42,4.44,5.15,6.65c0.5,0.64,1.06,1.25,1.68,1.98c0.61-0.35,1.16-0.63,1.66-0.97
	c24.54-16.53,51.35-20.57,80.01-14.65c19.3,3.98,35.8,12.67,48.2,28.36C230.71,98.67,235.18,107.68,238.74,117.57z M82.82,72.6
	c-26.59,23.43-42.59,51.37-41.05,87.29c1.4,32.84,14.33,60.04,40.18,79.79c4.46-4.47,8.59-8.61,12.67-12.69
	C50.3,194.17,42.08,118.35,89.77,81.56C87.56,78.71,85.35,75.86,82.82,72.6z M267.32,101.23c-0.09-0.61-0.08-0.94-0.19-1.21
	c-6.95-17.59-16.66-33.42-31.24-45.68c-29.93-25.17-65.08-31.98-102.77-26.95c-21.48,2.87-39.98,13.55-57.26,26.71
	c2.65,3.4,5.17,6.63,7.74,9.92c1.12-0.81,1.86-1.37,2.63-1.9c19.28-13.61,40.43-22.33,64.16-23.6c20.57-1.11,40.5,1.95,59.12,11.29
	c22.94,11.52,37.59,30.37,47.03,53.73c0.4,1,0.86,1.98,1.36,3.14C261.32,104.69,264.36,102.94,267.32,101.23z M108.41,214.05
	c-19.16-13.92-29.5-32.81-30.72-56.53c-1.22-23.77,7.48-43.67,24.41-60.14c-2.92-3.74-5.66-7.24-8.39-10.74
	c-46.45,35.13-35.57,107.92,5.72,136.17C102.42,219.89,105.37,217.01,108.41,214.05z"/>
<path class="st0" d="M202.58,168.42c0.64,1.63,2.11,3.56,1.67,4.81c-0.4,1.14-2.88,1.54-4.62,1.92
	c-13.44,27.24-47.07,37.44-70.14,26c-24.59-12.2-37.37-42.64-28-67.34c9.62-25.35,38.23-38.46,66.33-30.66
	c29.06,8.07,39.96,37.91,33.83,65.28C201.96,168.43,202.27,168.42,202.58,168.42z M182.26,165.76
	c-9.97,18.95-29.6,22.84-43.91,16.19c-15.19-7.06-22.72-24.41-17.42-40.32c5.18-15.54,21.46-25.13,37.25-21.94
	c18.57,3.75,28.01,18.31,26.14,40.55c3.78,1.87,7.63,3.78,11.73,5.81c2.01-7.5,1.51-14.51,0.52-21.53
	c-2.61-18.42-14.02-31.79-31.39-35.96c-5.39-1.29-11.14-1.77-16.7-1.61c-26.2,0.74-49.8,24.1-43.12,53.88
	c4.21,18.75,15.12,32.48,34,37.58c18.41,4.97,34.29-1.29,47.15-15c3.11-3.32,5.31-7.5,8.07-11.48
	C190.02,169.64,186.23,167.74,182.26,165.76z M178.53,157.28c2.93-14.16-6.19-28.24-19.88-31.54c-14.17-3.42-28.57,4.92-32.54,18.86
	c-3.99,14.01,3.81,28.62,17.71,33.15c13.1,4.28,28.15-2.43,32.77-14.84c-3.29-1.64-6.6-3.32-9.93-4.96c-1.9-0.93-3.72-2.07-2.57-4.5
	c1.26-2.66,3.38-1.7,5.33-0.73C172.36,154.2,175.3,155.67,178.53,157.28z"/>
<g>
	<path class="st0" d="M423.6,163.9c-0.14-2.44-0.44-4.92-0.92-7.43c-0.48-2.51-1.19-4.82-2.14-6.92c-0.95-2.1-2.24-3.8-3.87-5.09
		c-1.63-1.29-3.6-1.93-5.91-1.93c-2.99,0-5.6,0.75-7.84,2.24c-2.24,1.5-4.11,3.46-5.6,5.91c-1.5,2.44-2.62,5.23-3.36,8.35
		c-0.75,3.12-1.12,6.31-1.12,9.57c0,6.92,1.9,12.66,5.7,17.21c3.8,4.55,9.09,6.82,15.88,6.82c5.16,0,9.64-1.05,13.44-3.16
		c3.8-2.1,7.33-4.92,10.59-8.45l17.92,20.77c-2.44,2.58-5.36,5.13-8.76,7.64c-3.39,2.51-7.23,4.72-11.5,6.62
		c-4.28,1.9-8.93,3.46-13.95,4.68c-5.02,1.22-10.25,1.83-15.68,1.83c-7.47,0-14.59-1.12-21.38-3.36
		c-6.79-2.24-12.73-5.63-17.82-10.18c-5.09-4.55-9.16-10.21-12.22-17c-3.05-6.79-4.58-14.73-4.58-23.82
		c0-8.96,1.39-16.73,4.17-23.31c2.78-6.58,6.48-12.01,11.1-16.29c4.61-4.28,9.94-7.43,15.98-9.47c6.04-2.04,12.32-3.05,18.83-3.05
		c3.39,0,6.48,0.41,9.26,1.22c2.78,0.81,5.22,1.83,7.33,3.05c2.1,1.22,3.9,2.51,5.4,3.87c1.49,1.36,2.65,2.51,3.46,3.46l3.46-9.77
		h24.03v46.02H423.6z"/>
	<path class="st0" d="M517.46,222.34c-7.33,0-14.42-1.12-21.28-3.36c-6.86-2.24-12.93-5.6-18.22-10.08s-9.5-10.11-12.63-16.9
		c-3.12-6.79-4.68-14.66-4.68-23.62c0-8.55,1.59-16.12,4.79-22.7c3.19-6.58,7.4-12.12,12.62-16.59c5.22-4.48,11.2-7.87,17.92-10.18
		c6.72-2.31,13.54-3.46,20.46-3.46c8.01,0,15.48,1.26,22.4,3.77c6.92,2.51,12.93,6.11,18.02,10.79c5.09,4.68,9.06,10.38,11.91,17.1
		c2.85,6.72,4.28,14.36,4.28,22.91c0,8.42-1.46,15.85-4.38,22.3c-2.92,6.45-6.89,11.91-11.91,16.39
		c-5.02,4.48-10.89,7.87-17.61,10.18C532.43,221.19,525.2,222.34,517.46,222.34z M517.46,196.28c2.17,0,4.1-0.68,5.8-2.04
		c1.7-1.35,3.16-3.26,4.38-5.7s2.14-5.33,2.75-8.65c0.61-3.33,0.92-6.89,0.92-10.69c0-3.8-0.34-7.36-1.02-10.69
		c-0.68-3.32-1.63-6.21-2.85-8.65s-2.75-4.38-4.58-5.8c-1.83-1.42-3.97-2.14-6.41-2.14c-2.04,0-3.9,0.68-5.6,2.04
		c-1.7,1.36-3.16,3.26-4.38,5.7s-2.21,5.29-2.95,8.55c-0.75,3.26-1.12,6.72-1.12,10.38c0,8.42,1.42,15.14,4.28,20.16
		C509.52,193.77,513.12,196.28,517.46,196.28z"/>
	<path class="st0" d="M643.1,219.7h-62.71v-26.67h8.55v-48.67h-8.55v-26.47h43.37l4.68,12.62c3.53-4.75,7.64-8.65,12.32-11.71
		c4.68-3.05,10.28-4.58,16.8-4.58c7.87,0,14.22,1.32,19.04,3.97c4.82,2.65,8.55,6.11,11.2,10.38c2.65,4.28,4.41,9.1,5.29,14.46
		c0.88,5.36,1.32,10.69,1.32,15.98v34h9.57v26.67h-51.31v-55.59c0-1.76-0.04-3.73-0.1-5.91c-0.07-2.17-0.44-4.21-1.12-6.11
		c-0.68-1.9-1.8-3.53-3.36-4.89c-1.56-1.36-3.84-2.04-6.82-2.04c-2.58,0-4.72,0.58-6.41,1.73c-1.7,1.16-3.02,2.65-3.97,4.48
		c-0.95,1.83-1.6,3.87-1.93,6.11c-0.34,2.24-0.51,4.45-0.51,6.62v28.91h14.66V219.7z"/>
	<path class="st0" d="M710.08,117.88h11V99.15l37.47-12.01v30.75h19.34v26.47h-19.34v36.24c0,0.95-0.04,1.9-0.1,2.85
		c-0.07,0.95-0.1,1.97-0.1,3.05c0,2.72,0.37,5.13,1.12,7.23c0.74,2.11,2.61,3.16,5.6,3.16c1.36,0,3.36-0.37,6.01-1.12
		c2.65-0.74,4.92-1.53,6.82-2.34v26.06c-1.5,0.68-3.39,1.25-5.7,1.73c-2.31,0.47-4.68,0.85-7.13,1.12
		c-2.44,0.27-4.72,0.51-6.82,0.71c-2.11,0.2-3.77,0.31-4.99,0.31c-7.6,0-13.54-1.02-17.82-3.05c-4.28-2.04-7.43-4.89-9.47-8.55
		s-3.33-8.14-3.87-13.44c-0.54-5.29-0.88-11.2-1.02-17.72v-36.24h-11V117.88z"/>
	<path class="st0" d="M888.25,205.65c-7.6,6.52-15.61,11.1-24.03,13.74c-8.42,2.65-17.92,3.97-28.51,3.97
		c-6.38,0-12.76-1.05-19.14-3.16c-6.38-2.1-12.12-5.36-17.21-9.77c-5.09-4.41-9.26-10.11-12.52-17.1
		c-3.26-6.99-4.89-15.37-4.89-25.15c0-8.28,1.42-15.71,4.28-22.3c2.85-6.58,6.72-12.18,11.61-16.8c4.89-4.61,10.66-8.11,17.31-10.49
		c6.65-2.37,13.85-3.56,21.58-3.56c8.42,0,15.85,1.22,22.3,3.67c6.45,2.44,11.84,5.84,16.19,10.18c4.34,4.35,7.6,9.47,9.77,15.37
		c2.17,5.9,3.26,12.32,3.26,19.24c0,2.72-0.2,5.4-0.61,8.04c-0.41,2.65-1.02,5.13-1.83,7.43h-64.14c0.27,1.36,0.71,2.99,1.32,4.89
		c0.61,1.9,1.66,3.73,3.16,5.5c1.49,1.77,3.53,3.26,6.11,4.48c2.58,1.22,6.04,1.83,10.38,1.83c1.76,0,3.7-0.07,5.8-0.2
		c2.1-0.13,4.38-0.54,6.82-1.22c2.44-0.68,5.02-1.66,7.74-2.95c2.71-1.29,5.43-3.09,8.14-5.4L888.25,205.65z M837.96,142.52
		c-3.12,0-5.67,0.61-7.64,1.83c-1.97,1.22-3.53,2.68-4.68,4.38c-1.16,1.7-1.97,3.5-2.44,5.4c-0.48,1.9-0.78,3.46-0.92,4.68h30.75
		c0-1.9-0.2-3.83-0.61-5.8c-0.41-1.97-1.12-3.73-2.14-5.29c-1.02-1.56-2.51-2.82-4.48-3.77C843.83,143,841.21,142.52,837.96,142.52z
		"/>
	<path class="st0" d="M949.13,188.54c0.13-2.04,0.37-4.75,0.71-8.14c0.34-3.39,0.81-7.16,1.43-11.3c0.61-4.14,1.42-8.62,2.44-13.44
		c1.02-4.82,2.27-9.81,3.77-14.97l6.52-22.81h37.67l7.74,26.47c1.22,3.94,2.31,8.14,3.26,12.62c0.95,4.48,1.83,8.76,2.65,12.83
		c0.81,4.07,1.46,7.77,1.93,11.1c0.47,3.33,0.78,5.87,0.92,7.64h0.41c0.13-1.63,0.37-3.7,0.71-6.21c0.34-2.51,0.71-5.26,1.12-8.25
		c0.41-2.98,0.92-6.01,1.53-9.06c0.61-3.05,1.32-5.94,2.14-8.65l3.46-12.01h-8.35v-26.47h49.68v26.47h-8.35l-23.82,75.34h-42.96
		l-14.05-46.02l-14.66,46.02h-41.95l-23.01-75.34h-8.76v-26.47h54.77v26.47h-6.92l4.48,14.86c0.68,2.44,1.32,5.06,1.93,7.84
		c0.61,2.78,1.12,5.53,1.53,8.25c0.41,2.72,0.75,5.23,1.02,7.53c0.27,2.31,0.47,4.21,0.61,5.7H949.13z"/>
	<path class="st0" d="M1127.91,222.34c-7.33,0-14.42-1.12-21.28-3.36c-6.86-2.24-12.93-5.6-18.22-10.08s-9.5-10.11-12.63-16.9
		c-3.12-6.79-4.68-14.66-4.68-23.62c0-8.55,1.59-16.12,4.79-22.7c3.19-6.58,7.4-12.12,12.62-16.59c5.22-4.48,11.2-7.87,17.92-10.18
		c6.72-2.31,13.54-3.46,20.46-3.46c8.01,0,15.48,1.26,22.4,3.77c6.92,2.51,12.93,6.11,18.02,10.79c5.09,4.68,9.06,10.38,11.91,17.1
		c2.85,6.72,4.28,14.36,4.28,22.91c0,8.42-1.46,15.85-4.38,22.3c-2.92,6.45-6.89,11.91-11.91,16.39
		c-5.02,4.48-10.89,7.87-17.61,10.18C1142.88,221.19,1135.65,222.34,1127.91,222.34z M1127.91,196.28c2.17,0,4.1-0.68,5.8-2.04
		c1.7-1.35,3.16-3.26,4.38-5.7s2.14-5.33,2.75-8.65c0.61-3.33,0.92-6.89,0.92-10.69c0-3.8-0.34-7.36-1.02-10.69
		c-0.68-3.32-1.63-6.21-2.85-8.65s-2.75-4.38-4.58-5.8c-1.83-1.42-3.97-2.14-6.41-2.14c-2.04,0-3.9,0.68-5.6,2.04
		c-1.7,1.36-3.16,3.26-4.38,5.7s-2.21,5.29-2.95,8.55c-0.75,3.26-1.12,6.72-1.12,10.38c0,8.42,1.42,15.14,4.28,20.16
		C1119.97,193.77,1123.57,196.28,1127.91,196.28z"/>
	<path class="st0" d="M1244.79,222.34c-7.33,0-14.42-1.12-21.28-3.36c-6.86-2.24-12.93-5.6-18.22-10.08s-9.5-10.11-12.63-16.9
		c-3.12-6.79-4.68-14.66-4.68-23.62c0-8.55,1.59-16.12,4.79-22.7c3.19-6.58,7.4-12.12,12.62-16.59c5.22-4.48,11.2-7.87,17.92-10.18
		c6.72-2.31,13.54-3.46,20.46-3.46c8.01,0,15.48,1.26,22.4,3.77c6.92,2.51,12.93,6.11,18.02,10.79c5.09,4.68,9.06,10.38,11.91,17.1
		c2.85,6.72,4.28,14.36,4.28,22.91c0,8.42-1.46,15.85-4.38,22.3c-2.92,6.45-6.89,11.91-11.91,16.39
		c-5.02,4.48-10.89,7.87-17.61,10.18C1259.75,221.19,1252.53,222.34,1244.79,222.34z M1244.79,196.28c2.17,0,4.1-0.68,5.8-2.04
		c1.7-1.35,3.16-3.26,4.38-5.7s2.14-5.33,2.75-8.65c0.61-3.33,0.92-6.89,0.92-10.69c0-3.8-0.34-7.36-1.02-10.69
		c-0.68-3.32-1.63-6.21-2.85-8.65s-2.75-4.38-4.58-5.8c-1.83-1.42-3.97-2.14-6.41-2.14c-2.04,0-3.9,0.68-5.6,2.04
		c-1.7,1.36-3.16,3.26-4.38,5.7s-2.21,5.29-2.95,8.55c-0.75,3.26-1.12,6.72-1.12,10.38c0,8.42,1.42,15.14,4.28,20.16
		C1236.85,193.77,1240.44,196.28,1244.79,196.28z"/>
	<path class="st0" d="M1377.55,93.45h-9.37V66.98h50.7v126.25h9.77v26.47h-47.65l-3.46-7.53c-0.68,0.68-1.73,1.53-3.16,2.55
		c-1.42,1.02-3.23,2.04-5.4,3.05c-2.17,1.02-4.68,1.9-7.53,2.65c-2.85,0.74-6.04,1.12-9.57,1.12c-7.2,0-13.71-1.46-19.55-4.38
		c-5.84-2.92-10.79-6.85-14.86-11.81c-4.07-4.95-7.23-10.69-9.47-17.21c-2.24-6.52-3.36-13.3-3.36-20.36
		c0-7.87,1.29-15.03,3.87-21.48c2.58-6.45,6.04-11.91,10.38-16.39c4.34-4.48,9.37-7.94,15.07-10.38c5.7-2.44,11.67-3.67,17.92-3.67
		c7.19,0,12.79,0.99,16.8,2.95c4,1.97,6.96,3.56,8.86,4.79V93.45z M1348.43,167.77c0,3.13,0.34,6.18,1.02,9.16
		c0.68,2.99,1.66,5.63,2.95,7.94c1.29,2.31,2.82,4.21,4.58,5.7c1.76,1.5,3.8,2.24,6.11,2.24c3.8,0,7.16-2.1,10.08-6.31
		c2.92-4.21,4.38-9.98,4.38-17.31c0-3.8-0.34-7.33-1.02-10.59c-0.68-3.26-1.66-6.11-2.95-8.55c-1.29-2.44-2.85-4.34-4.68-5.7
		c-1.83-1.36-3.84-2.04-6.01-2.04c-4.35,0-7.84,2.31-10.49,6.92C1349.75,153.86,1348.43,160.03,1348.43,167.77z"/>
</g>
</svg>
